#!OML:ASF E:\emotionWalksFemale\Project 1\Capture day 1\Session 1\Female1.ASF
:FULLY-SPECIFIED
:DEGREES
2514
root 6.75606 15.0986 40.3413 -0.250727 -169.047 1.89902
lowerback 5.60872 1.31487 -0.409578
upperback -4.67798 1.51826 -1.25029
thorax -8.0395 0.676439 -1.26847
lowerneck -5.68765 -6.01478 -9.30154
upperneck 7.06599 -7.84083 6.64289
head 3.66179 -3.87634 3.10614
rclavicle 3.50855e-014 7.15625e-015
rhumerus -66.804 51.5582 -131.181
rradius 103.852
rwrist -38.9789
rhand 15.8715 -70.7496
rfingers 7.12502
rthumb -139.329 -1524.23
lclavicle 3.50855e-014 7.15625e-015
lhumerus -76.1428 -43.9219 119.319
lradius 114.708
lwrist 43.4004
lhand 12.5478 -31.137
lfingers 7.12502
lthumb 37.5386 -5.21376
rfemur -12.3111 4.66815 24.8655
rtibia 34.7948
rfoot -23.5044 -15.2753
rtoes -4.1304
lfemur -7.92609 -14.2569 -26.749
ltibia 29.5133
lfoot -34.6188 23.1738
ltoes 10.6848
2515
root 6.76449 15.0917 40.3432 -0.288473 -169.226 1.88077
lowerback 5.62264 1.33812 -0.415402
upperback -4.70155 1.55127 -1.20654
thorax -8.07385 0.693925 -1.22414
lowerneck -5.64826 -5.95031 -9.51191
upperneck 7.0938 -7.74196 6.66851
head 3.66504 -3.83257 3.15457
rclavicle 3.22031e-014 -1.19271e-014
rhumerus -65.7885 51.4342 -130.064
rradius 103.305
rwrist -36.69
rhand 16.2904 -70.7538
rfingers 7.12502
rthumb -138.935 -1524.35
lclavicle 3.22031e-014 -1.19271e-014
lhumerus -76.2158 -43.5938 119.299
lradius 114.76
lwrist 43.4854
lhand 12.3404 -31.1772
lfingers 7.12502
lthumb 37.3426 -5.20209
rfemur -12.2035 4.98288 24.8356
rtibia 34.6739
rfoot -23.7841 -15.1993
rtoes -4.46489
lfemur -7.94401 -14.1046 -26.7603
ltibia 29.5926
lfoot -34.4487 23.4872
ltoes 9.82984
2516
root 6.77328 15.0845 40.3482 -0.32559 -169.344 1.83074
lowerback 5.7096 1.36845 -0.38042
upperback -4.70602 1.59249 -1.23504
thorax -8.12716 0.710917 -1.28152
lowerneck -5.78635 -5.94704 -9.57129
upperneck 7.19533 -7.71498 6.58754
head 3.71551 -3.82143 3.13588
rclavicle -2.06736e-014 -3.4191e-014
rhumerus -64.3712 51.2978 -128.687
rradius 102.813
rwrist -34.582
rhand 16.661 -70.8424
rfingers 7.12502
rthumb -138.587 -1524.37
lclavicle -2.06736e-014 -3.4191e-014
lhumerus -76.3126 -43.4832 119.287
lradius 114.892
lwrist 43.6366
lhand 12.0013 -31.0642
lfingers 7.12502
lthumb 37.022 -5.00546
rfemur -12.1229 5.16124 24.7963
rtibia 34.5482
rfoot -23.667 -15.4824
rtoes -6.39371
lfemur -7.94358 -14.3153 -26.8433
ltibia 29.6756
lfoot -34.3574 24.0532
ltoes 8.65561
2517
root 6.78122 15.0772 40.3513 -0.296909 -169.363 1.73657
lowerback 5.66729 1.36599 -0.39799
upperback -4.71428 1.57902 -1.31544
thorax -8.1099 0.701555 -1.35345
lowerneck -5.90354 -5.94057 -9.50315
upperneck 7.31084 -7.70185 6.52968
head 3.76379 -3.81423 3.10372
rclavicle -2.43511e-014 3.18055e-015
rhumerus -65.2828 51.5347 -129.761
rradius 103.389
rwrist -37.0745
rhand 16.3098 -70.8544
rfingers 7.12502
rthumb -138.917 -1524.26
lclavicle -2.43511e-014 3.18055e-015
lhumerus -76.4655 -43.3782 119.249
lradius 115
lwrist 43.6772
lhand 11.6767 -30.9071
lfingers 7.12502
lthumb 36.7149 -4.76944
rfemur -12.0717 5.1797 24.6942
rtibia 34.3877
rfoot -23.7939 -15.5169
rtoes -6.85888
lfemur -7.9919 -14.871 -26.9859
ltibia 29.7903
lfoot -34.521 24.658
ltoes 8.46145
2518
root 6.78859 15.0698 40.3559 -0.301004 -169.33 1.71254
lowerback 5.60728 1.31003 -0.314259
upperback -4.71428 1.50465 -1.38962
thorax -8.07195 0.657234 -1.46738
lowerneck -5.75438 -5.87389 -9.43684
upperneck 7.16534 -7.63328 6.60788
head 3.69 -3.7777 3.12773
rclavicle -2.03754e-014 -2.38542e-015
rhumerus -65.8043 51.3862 -130.353
rradius 103.356
rwrist -37.3752
rhand 16.3179 -70.888
rfingers 7.12502
rthumb -138.909 -1524.22
lclavicle -2.03754e-014 -2.38542e-015
lhumerus -76.5417 -43.1396 119.075
lradius 115.032
lwrist 43.6219
lhand 11.7595 -30.7683
lfingers 7.12502
lthumb 36.7932 -4.65062
rfemur -11.9668 5.30017 24.6624
rtibia 34.1672
rfoot -24.0069 -15.4121
rtoes -6.55408
lfemur -8.07996 -15.184 -27.0173
ltibia 29.9538
lfoot -34.5544 24.9249
ltoes 9.10099
2519
root 6.79816 15.0677 40.3607 -0.385214 -169.397 1.77386
lowerback 5.61295 1.2818 -0.213633
upperback -4.64878 1.48194 -1.38105
thorax -8.00255 0.643203 -1.51091
lowerneck -5.66548 -5.8217 -9.36294
upperneck 6.90883 -7.55897 6.5676
head 3.58745 -3.73952 3.11403
rclavicle 3.50855e-014 -9.54166e-015
rhumerus -66.0174 51.5254 -130.63
rradius 103.494
rwrist -38.1423
rhand 15.611 -71.4588
rfingers 7.12502
rthumb -139.574 -1523.45
lclavicle 3.50855e-014 -9.54166e-015
lhumerus -76.4524 -42.952 118.816
lradius 115.075
lwrist 43.6007
lhand 12.1468 -30.7423
lfingers 7.12502
lthumb 37.1596 -4.71928
rfemur -11.7586 5.52604 24.7666
rtibia 33.8761
rfoot -23.8937 -15.3703
rtoes -5.61716
lfemur -8.12519 -15.0596 -26.9149
ltibia 30.1643
lfoot -34.2522 24.8056
ltoes 10.5299
2520
root 6.80926 15.0671 40.3633 -0.401923 -169.543 1.95553
lowerback 5.57589 1.31032 -0.0500261
upperback -4.6235 1.54305 -1.32748
thorax -7.94906 0.667478 -1.55234
lowerneck -5.78609 -5.82637 -9.20034
upperneck 6.88956 -7.539 6.28404
head 3.58288 -3.73292 2.99994
rclavicle 1.10325e-014 -2.22639e-014
rhumerus -65.9373 51.6599 -130.617
rradius 103.472
rwrist -38.5887
rhand 16.1483 -71.6284
rfingers 7.12502
rthumb -139.069 -1523.43
lclavicle 1.10325e-014 -2.22639e-014
lhumerus -76.4882 -42.8916 118.675
lradius 115.132
lwrist 43.6703
lhand 12.4342 -30.6067
lfingers 7.12502
lthumb 37.4313 -4.65499
rfemur -11.6494 5.71943 25.0058
rtibia 33.5623
rfoot -23.7004 -15.4741
rtoes -5.32413
lfemur -8.26623 -14.8679 -26.6499
ltibia 30.3883
lfoot -34.6284 24.756
ltoes 8.69057
